# Tiled2Unity generated file. Do not modify by hand.
# Wavefront file for 'RadioBoyLevel1.1_mesh_0005.obj'

# Vertices (Count = 16)
v -520 -80 0
v -540 -80 0
v -540 -60 0
v -520 -60 0
v -540 -80 0
v -560 -80 0
v -560 -60 0
v -540 -60 0
v -340 -120 0
v -360 -120 0
v -360 -100 0
v -340 -100 0
v -360 -120 0
v -380 -120 0
v -380 -100 0
v -360 -100 0

# Texture cooridinates (Count = 4)
vt 0 0
vt 1 0
vt 1 1
vt 0 1

# Normal
vn 0 0 -1

# Mesh description
g RadioBoyLevel1.1_mesh_0005

# Faces
f 1/1/1 2/2/1 3/3/1 4/4/1
f 5/1/1 6/2/1 7/3/1 8/4/1
f 9/1/1 10/2/1 11/3/1 12/4/1
f 13/1/1 14/2/1 15/3/1 16/4/1

