# Tiled2Unity generated file. Do not modify by hand.
# Wavefront file for 'RadioBoyLevel1_mesh_0013.obj'

# Vertices (Count = 16)
v -160 -160 0
v -180 -160 0
v -180 -140 0
v -160 -140 0
v -260 -160 0
v -280 -160 0
v -280 -140 0
v -260 -140 0
v -260 -180 0
v -280 -180 0
v -280 -160 0
v -260 -160 0
v -260 -200 0
v -280 -200 0
v -280 -180 0
v -260 -180 0

# Texture cooridinates (Count = 4)
vt 0 0
vt 1 0
vt 1 1
vt 0 1

# Normal
vn 0 0 -1

# Mesh description
g RadioBoyLevel1_mesh_0013

# Faces
f 1/1/1 2/2/1 3/3/1 4/4/1
f 5/1/1 6/2/1 7/3/1 8/4/1
f 9/1/1 10/2/1 11/3/1 12/4/1
f 13/1/1 14/2/1 15/3/1 16/4/1

