# Tiled2Unity generated file. Do not modify by hand.
# Wavefront file for 'RadioBoyLevel1_mesh_0002.obj'

# Vertices (Count = 48)
v -520 -60 0
v -540 -60 0
v -540 -40 0
v -520 -40 0
v -540 -60 0
v -560 -60 0
v -560 -40 0
v -540 -40 0
v -580 -80 0
v -600 -80 0
v -600 -60 0
v -580 -60 0
v -340 -100 0
v -360 -100 0
v -360 -80 0
v -340 -80 0
v -360 -100 0
v -380 -100 0
v -380 -80 0
v -360 -80 0
v -800 -120 0
v -820 -120 0
v -820 -100 0
v -800 -100 0
v -840 -120 0
v -860 -120 0
v -860 -100 0
v -840 -100 0
v -860 -120 0
v -880 -120 0
v -880 -100 0
v -860 -100 0
v -880 -120 0
v -900 -120 0
v -900 -100 0
v -880 -100 0
v -600 -140 0
v -620 -140 0
v -620 -120 0
v -600 -120 0
v -620 -140 0
v -640 -140 0
v -640 -120 0
v -620 -120 0
v -640 -140 0
v -660 -140 0
v -660 -120 0
v -640 -120 0

# Texture cooridinates (Count = 4)
vt 0 0
vt 1 0
vt 1 1
vt 0 1

# Normal
vn 0 0 -1

# Mesh description
g RadioBoyLevel1_mesh_0002

# Faces
f 1/1/1 2/2/1 3/3/1 4/4/1
f 5/1/1 6/2/1 7/3/1 8/4/1
f 9/1/1 10/2/1 11/3/1 12/4/1
f 13/1/1 14/2/1 15/3/1 16/4/1
f 17/1/1 18/2/1 19/3/1 20/4/1
f 21/1/1 22/2/1 23/3/1 24/4/1
f 25/1/1 26/2/1 27/3/1 28/4/1
f 29/1/1 30/2/1 31/3/1 32/4/1
f 33/1/1 34/2/1 35/3/1 36/4/1
f 37/1/1 38/2/1 39/3/1 40/4/1
f 41/1/1 42/2/1 43/3/1 44/4/1
f 45/1/1 46/2/1 47/3/1 48/4/1

