# Tiled2Unity generated file. Do not modify by hand.
# Wavefront file for 'RadioBoyLevel1_mesh_0008.obj'

# Vertices (Count = 168)
v 0 -120 0
v -20 -120 0
v -20 -100 0
v 0 -100 0
v -20 -120 0
v -40 -120 0
v -40 -100 0
v -20 -100 0
v -40 -120 0
v -60 -120 0
v -60 -100 0
v -40 -100 0
v -80 -140 0
v -100 -140 0
v -100 -120 0
v -80 -120 0
v -100 -140 0
v -120 -140 0
v -120 -120 0
v -100 -120 0
v -120 -140 0
v -140 -140 0
v -140 -120 0
v -120 -120 0
v -140 -140 0
v -160 -140 0
v -160 -120 0
v -140 -120 0
v -240 -140 0
v -260 -140 0
v -260 -120 0
v -240 -120 0
v -400 -140 0
v -420 -140 0
v -420 -120 0
v -400 -120 0
v -420 -140 0
v -440 -140 0
v -440 -120 0
v -420 -120 0
v -440 -140 0
v -460 -140 0
v -460 -120 0
v -440 -120 0
v -460 -140 0
v -480 -140 0
v -480 -120 0
v -460 -120 0
v -480 -140 0
v -500 -140 0
v -500 -120 0
v -480 -120 0
v -500 -140 0
v -520 -140 0
v -520 -120 0
v -500 -120 0
v -520 -140 0
v -540 -140 0
v -540 -120 0
v -520 -120 0
v -540 -140 0
v -560 -140 0
v -560 -120 0
v -540 -120 0
v -560 -140 0
v -580 -140 0
v -580 -120 0
v -560 -120 0
v -580 -140 0
v -600 -140 0
v -600 -120 0
v -580 -120 0
v -660 -140 0
v -680 -140 0
v -680 -120 0
v -660 -120 0
v -680 -140 0
v -700 -140 0
v -700 -120 0
v -680 -120 0
v -700 -140 0
v -720 -140 0
v -720 -120 0
v -700 -120 0
v -1160 -140 0
v -1180 -140 0
v -1180 -120 0
v -1160 -120 0
v -1180 -140 0
v -1200 -140 0
v -1200 -120 0
v -1180 -120 0
v -740 -180 0
v -760 -180 0
v -760 -160 0
v -740 -160 0
v -760 -180 0
v -780 -180 0
v -780 -160 0
v -760 -160 0
v -780 -180 0
v -800 -180 0
v -800 -160 0
v -780 -160 0
v -800 -180 0
v -820 -180 0
v -820 -160 0
v -800 -160 0
v -820 -180 0
v -840 -180 0
v -840 -160 0
v -820 -160 0
v -840 -180 0
v -860 -180 0
v -860 -160 0
v -840 -160 0
v -860 -180 0
v -880 -180 0
v -880 -160 0
v -860 -160 0
v -880 -180 0
v -900 -180 0
v -900 -160 0
v -880 -160 0
v -900 -180 0
v -920 -180 0
v -920 -160 0
v -900 -160 0
v -920 -180 0
v -940 -180 0
v -940 -160 0
v -920 -160 0
v -940 -180 0
v -960 -180 0
v -960 -160 0
v -940 -160 0
v -960 -180 0
v -980 -180 0
v -980 -160 0
v -960 -160 0
v -980 -180 0
v -1000 -180 0
v -1000 -160 0
v -980 -160 0
v -1000 -180 0
v -1020 -180 0
v -1020 -160 0
v -1000 -160 0
v -1020 -180 0
v -1040 -180 0
v -1040 -160 0
v -1020 -160 0
v -1040 -180 0
v -1060 -180 0
v -1060 -160 0
v -1040 -160 0
v -1060 -180 0
v -1080 -180 0
v -1080 -160 0
v -1060 -160 0
v -1080 -180 0
v -1100 -180 0
v -1100 -160 0
v -1080 -160 0
v -1100 -180 0
v -1120 -180 0
v -1120 -160 0
v -1100 -160 0

# Texture cooridinates (Count = 4)
vt 0 0
vt 1 0
vt 1 1
vt 0 1

# Normal
vn 0 0 -1

# Mesh description
g RadioBoyLevel1_mesh_0008

# Faces
f 1/1/1 2/2/1 3/3/1 4/4/1
f 5/1/1 6/2/1 7/3/1 8/4/1
f 9/1/1 10/2/1 11/3/1 12/4/1
f 13/1/1 14/2/1 15/3/1 16/4/1
f 17/1/1 18/2/1 19/3/1 20/4/1
f 21/1/1 22/2/1 23/3/1 24/4/1
f 25/1/1 26/2/1 27/3/1 28/4/1
f 29/1/1 30/2/1 31/3/1 32/4/1
f 33/1/1 34/2/1 35/3/1 36/4/1
f 37/1/1 38/2/1 39/3/1 40/4/1
f 41/1/1 42/2/1 43/3/1 44/4/1
f 45/1/1 46/2/1 47/3/1 48/4/1
f 49/1/1 50/2/1 51/3/1 52/4/1
f 53/1/1 54/2/1 55/3/1 56/4/1
f 57/1/1 58/2/1 59/3/1 60/4/1
f 61/1/1 62/2/1 63/3/1 64/4/1
f 65/1/1 66/2/1 67/3/1 68/4/1
f 69/1/1 70/2/1 71/3/1 72/4/1
f 73/1/1 74/2/1 75/3/1 76/4/1
f 77/1/1 78/2/1 79/3/1 80/4/1
f 81/1/1 82/2/1 83/3/1 84/4/1
f 85/1/1 86/2/1 87/3/1 88/4/1
f 89/1/1 90/2/1 91/3/1 92/4/1
f 93/1/1 94/2/1 95/3/1 96/4/1
f 97/1/1 98/2/1 99/3/1 100/4/1
f 101/1/1 102/2/1 103/3/1 104/4/1
f 105/1/1 106/2/1 107/3/1 108/4/1
f 109/1/1 110/2/1 111/3/1 112/4/1
f 113/1/1 114/2/1 115/3/1 116/4/1
f 117/1/1 118/2/1 119/3/1 120/4/1
f 121/1/1 122/2/1 123/3/1 124/4/1
f 125/1/1 126/2/1 127/3/1 128/4/1
f 129/1/1 130/2/1 131/3/1 132/4/1
f 133/1/1 134/2/1 135/3/1 136/4/1
f 137/1/1 138/2/1 139/3/1 140/4/1
f 141/1/1 142/2/1 143/3/1 144/4/1
f 145/1/1 146/2/1 147/3/1 148/4/1
f 149/1/1 150/2/1 151/3/1 152/4/1
f 153/1/1 154/2/1 155/3/1 156/4/1
f 157/1/1 158/2/1 159/3/1 160/4/1
f 161/1/1 162/2/1 163/3/1 164/4/1
f 165/1/1 166/2/1 167/3/1 168/4/1

